<?xml version="1.0" standalone="no"?>
<!DOCTYPE svg PUBLIC "-//W3C//DTD SVG 20010904//EN"
 "http://www.w3.org/TR/2001/REC-SVG-20010904/DTD/svg10.dtd">
<svg version="1.0" xmlns="http://www.w3.org/2000/svg"
 width="200.000000pt" height="200.000000pt" viewBox="0 0 200.000000 200.000000"
 preserveAspectRatio="xMidYMid meet">
<metadata>
Created by potrace 1.14, written by Peter Selinger 2001-2017
</metadata>
<g transform="translate(0.000000,200.000000) scale(0.100000,-0.100000)"
fill="#000000" stroke="none">
<path d="M886 1842 c-97 -31 -61 31 -603 -1045 -197 -391 -225 -454 -225 -492
2 -72 35 -121 103 -149 41 -17 113 -12 146 10 13 8 83 75 156 148 211 212 370
341 568 462 145 88 375 193 390 176 4 -4 98 -188 209 -409 l202 -402 59 0 c32
0 59 5 59 11 0 5 -94 198 -209 428 l-209 418 31 7 c71 14 146 25 222 31 90 7
110 13 47 15 -23 1 -51 3 -62 4 -11 1 -76 3 -144 4 l-123 1 -167 334 c-92 184
-180 352 -195 374 -53 73 -161 104 -255 74z m352 -520 c73 -147 133 -270 132
-274 0 -5 -12 -8 -27 -8 -34 0 -217 -41 -304 -68 -89 -27 -235 -85 -297 -116
-60 -30 -60 -31 3 84 23 41 70 129 105 195 34 66 66 125 70 130 4 6 38 68 75
140 84 160 99 185 105 185 3 -1 65 -121 138 -268z"/>
</g>
</svg>
