<?xml version="1.0" encoding="utf-8"?>
<!-- Generator: Adobe Illustrator 26.1.0, SVG Export Plug-In . SVG Version: 6.00 Build 0)  -->
<svg version="1.1" id="A_LOGO" xmlns="http://www.w3.org/2000/svg" xmlns:xlink="http://www.w3.org/1999/xlink" x="0px" y="0px"
	 viewBox="0 0 150 50" style="enable-background:new 0 0 150 50;" xml:space="preserve">
<style type="text/css">
	.st0{fill:url(#SVGID_1_);}
	.st1{fill:url(#SVGID_00000012451644720452151700000010702540675980645053_);}
	.st2{fill:url(#SVGID_00000052818155172505283200000011162707943484494781_);}
	.st3{fill:none;stroke:#FFFFFF;stroke-miterlimit:10;}
	.st4{fill:url(#SVGID_00000067957051647959360030000002805174182484683170_);}
	.st5{fill:#2E90B9;}
</style>
<g id="LOGO_00000136395179425285290740000013693236796763407779_">
	
		<linearGradient id="SVGID_1_" gradientUnits="userSpaceOnUse" x1="30.8" y1="25" x2="54.9" y2="25" gradientTransform="matrix(1 0 0 -1 0 52)">
		<stop  offset="0" style="stop-color:#06003C"/>
		<stop  offset="0.18" style="stop-color:#0F2654"/>
		<stop  offset="0.4721" style="stop-color:#155B84"/>
		<stop  offset="0.9832" style="stop-color:#2F97A8"/>
	</linearGradient>
	<polygon class="st0" points="51.4,49.2 54.9,49.2 32.7,4.8 30.8,8.3 	"/>
	
		<linearGradient id="SVGID_00000072237933039297474730000006882714117961240250_" gradientUnits="userSpaceOnUse" x1="9.2375" y1="37.2" x2="32.6941" y2="37.2" gradientTransform="matrix(1 0 0 -1 0 52)">
		<stop  offset="1.117320e-02" style="stop-color:#1476A7"/>
		<stop  offset="0.364" style="stop-color:#348FB2"/>
		<stop  offset="0.9832" style="stop-color:#63C7C7"/>
	</linearGradient>
	<path style="fill:url(#SVGID_00000072237933039297474730000006882714117961240250_);" d="M32.7,4.8L32.7,4.8
		c-0.2,0.1-12.5,5.5-23.5,23.6l3.7-7.3l8.2-16.3C23.5,0,30.3,0,32.7,4.8z"/>
	
		<linearGradient id="SVGID_00000049931142934281430650000000342169875140473733_" gradientUnits="userSpaceOnUse" x1="2.0596" y1="28.3" x2="32.6925" y2="28.3" gradientTransform="matrix(1 0 0 -1 0 52)">
		<stop  offset="0" style="stop-color:#06003C"/>
		<stop  offset="0.18" style="stop-color:#0F2654"/>
		<stop  offset="0.4721" style="stop-color:#155B84"/>
		<stop  offset="0.9832" style="stop-color:#2F97A8"/>
	</linearGradient>
	<path style="fill:url(#SVGID_00000049931142934281430650000000342169875140473733_);" d="M32.7,4.8L19.1,30.1c-2,1-3.8,2.1-5.5,3.1
		c-0.2,0.1-0.4,0.3-0.6,0.4c-0.6,0.4-1.2,0.8-1.8,1.2c-0.2,0.1-0.4,0.2-0.5,0.4c-0.8,0.6-1.5,1.1-2.2,1.7C8.3,37,8.1,37.1,8,37.2
		c-0.3,0.2-0.5,0.4-0.7,0.6C7,38,6.8,38.1,6.7,38.3c-0.2,0.2-0.4,0.3-0.5,0.4C6,38.8,6,38.9,5.9,39s-0.3,0.2-0.4,0.3
		c-0.2,0.2-0.4,0.3-0.6,0.5c-0.1,0.1-0.1,0.1-0.2,0.2c-0.4,0.4-0.8,0.7-1.1,1c-0.1,0.1-0.2,0.2-0.3,0.3c-0.8,0.8-1.2,1.3-1.3,1.3
		l7.2-14.2C20.2,10.2,32.5,4.8,32.7,4.8z"/>
	<path class="st3" d="M54.8,24.3c-0.1,0-0.2,0-0.4-0.1C54.6,24.2,54.8,24.3,54.8,24.3z"/>
	
		<linearGradient id="SVGID_00000144338161740161382160000003653940186109568134_" gradientUnits="userSpaceOnUse" x1="1.5594" y1="15.5877" x2="54.2594" y2="15.5877" gradientTransform="matrix(1 0 0 -1 0 52)">
		<stop  offset="1.117320e-02" style="stop-color:#083B6E"/>
		<stop  offset="5.090111e-02" style="stop-color:#0C4274"/>
		<stop  offset="0.2307" style="stop-color:#20628F"/>
		<stop  offset="0.406" style="stop-color:#2E80AA"/>
		<stop  offset="0.5727" style="stop-color:#3B9BC2"/>
		<stop  offset="0.7287" style="stop-color:#44B0D4"/>
		<stop  offset="0.8699" style="stop-color:#4ABFE1"/>
		<stop  offset="0.9832" style="stop-color:#4BC7E7"/>
	</linearGradient>
	<path style="fill:url(#SVGID_00000144338161740161382160000003653940186109568134_);" d="M54.2,24.2c-4.1-0.5-22.1-0.7-43.4,22.3
		c0,0-1.1,1.3-1.6,1.7c-0.7,0.5-1.7,1.1-3.1,1.1c-2.6,0-4.6-2.2-4.6-4.6c0-0.7,0.2-1.4,0.5-2.1l0,0c0-0.1,0.5-0.5,1.3-1.3
		c0.1-0.1,0.2-0.2,0.3-0.3c0.3-0.3,0.7-0.7,1.1-1c0.1-0.1,0.1-0.1,0.2-0.2c0.2-0.2,0.4-0.3,0.6-0.5c0.1-0.1,0.2-0.2,0.4-0.3
		C6,38.9,6,38.8,6.1,38.7c0.2-0.1,0.3-0.3,0.5-0.4C6.8,38.1,7,38,7.2,37.8s0.5-0.4,0.7-0.6c0.2-0.1,0.3-0.2,0.5-0.4
		c0.7-0.5,1.4-1.1,2.2-1.7c0.2-0.1,0.4-0.3,0.5-0.4c0.6-0.4,1.1-0.8,1.7-1.2c0.2-0.1,0.4-0.3,0.6-0.4c1.7-1.1,3.5-2.1,5.5-3.1
		C28,25.5,40,22,54.2,24.2z"/>
</g>
<g>
	<path class="st5" d="M63.6,47.8h-5.4l-7-20.1h5.6l4,14.1l3.6-12.3c0.4-1.2,1.2-1.8,2.4-1.8h3.9L63.6,47.8z"/>
	<path class="st5" d="M84.2,47c-1.1,0.6-2.2,0.9-3.4,1c-1.2,0.1-2.2,0.2-3.1,0.2c-1.8,0-3.4-0.5-4.8-1.5s-2-2.6-2-4.9
		c0-2.1,0.6-3.6,1.9-4.5c1.2-0.9,2.8-1.5,4.7-1.8c0.3,0,0.6,0,0.9-0.1c0.4-0.1,0.8-0.1,1.2-0.2c2.2-0.3,3.3-1,3.3-2
		c0-0.8-0.4-1.2-1.2-1.5c-0.8-0.2-1.5-0.3-2.2-0.3s-1.3,0.1-1.9,0.3c-0.6,0.2-1,0.6-1.2,1.1h-5.1c0.2-1.6,0.9-2.8,2.1-3.9
		c1.4-1.2,3.3-1.7,5.8-1.7c2.8,0,4.9,0.5,6.3,1.4c1.5,1,2.2,2.4,2.2,4.2v6.9c0,2-0.4,3.6-1.1,4.7C86.1,45.7,85.2,46.5,84.2,47z
		 M83,37.7c-0.7,0.4-1.7,0.7-2.9,1l-1.7,0.4c-0.9,0.3-1.6,0.6-2,1c-0.4,0.6-0.5,1.1-0.5,1.7c0,0.8,0.2,1.4,0.7,1.8
		c0.5,0.4,1.1,0.6,2,0.6c1.4,0,2.5-0.4,3.3-1.2s1.2-1.9,1.2-3.3L83,37.7L83,37.7z"/>
	<path class="st5" d="M90.3,21.8H93c0.7,0,1.3,0.2,1.8,0.7s0.8,1.1,0.8,1.8v23.5h-5.3V21.8z"/>
	<path class="st5" d="M100.4,46c-1.1-0.9-1.8-2.1-2.3-3.7c-0.5-1.5-0.7-3.1-0.7-4.8c0-1.4,0.2-2.7,0.6-4.1c0.4-1.4,1-2.5,1.8-3.4
		c1.3-1.5,3-2.4,5.1-2.7c2.1-0.3,3.9-0.1,5.6,0.5c1.9,0.8,3.3,2.1,4.2,3.9c0.9,1.7,1.3,3.6,1.3,5.8c0,1.6-0.2,3-0.5,4.2
		c-0.4,1.2-0.8,2.1-1.4,2.9c-1.2,1.7-2.7,2.7-4.6,3.1c-1.7,0.5-3.3,0.5-5,0.1C102.8,47.6,101.4,46.9,100.4,46z M104.1,32.7
		c-1.1,1.2-1.5,2.9-1.4,5.2s0.5,3.9,1.3,4.8c0.3,0.4,0.8,0.7,1.6,1c0.8,0.3,1.5,0.3,2.3,0.1s1.5-0.8,2.1-1.7s0.9-2.4,1-4.4
		c0-1.8-0.3-3.2-0.9-4.1c-0.6-0.9-1.2-1.5-2-1.7c-0.8-0.3-1.5-0.3-2.3,0C105,32.1,104.4,32.4,104.1,32.7z"/>
	<path class="st5" d="M135.5,27.7v11.8c0,3.6-0.9,5.9-2.8,7c-1.9,1.1-3.9,1.7-6.1,1.7c-2.2-0.1-4.1-0.7-5.9-1.8S118,43,118,39.5
		V27.7h5.3v12.8c0,1.2,0.4,2.1,1.1,2.6c0.7,0.6,1.5,0.8,2.4,0.8s1.7-0.3,2.5-0.8c0.7-0.6,1.1-1.4,1.1-2.6V30.3
		c0-0.7,0.2-1.3,0.7-1.8s1.1-0.8,1.9-0.8H135.5z"/>
	<path class="st5" d="M137.7,47.8V38c0-2,0.3-3.6,0.9-5c0.6-1.3,1.4-2.4,2.4-3.2c1-0.8,2.1-1.3,3.4-1.7c1.3-0.4,2.6-0.5,4-0.5
		c0.1,0,0.2,0,0.4,0s0.3,0,0.4,0V33h-1.7c-1.5,0-2.5,0.4-3.3,1.1c-0.7,0.7-1.1,1.8-1.1,3.3v10.4C143.1,47.8,137.7,47.8,137.7,47.8z"
		/>
</g>
</svg>
