<?xml version="1.0" encoding="utf-8"?>
<!-- Generator: Adobe Illustrator 26.1.0, SVG Export Plug-In . SVG Version: 6.00 Build 0)  -->
<svg version="1.1" id="A_LOGO" xmlns="http://www.w3.org/2000/svg" xmlns:xlink="http://www.w3.org/1999/xlink" x="0px" y="0px"
	 viewBox="0 0 150 50" style="enable-background:new 0 0 150 50;" xml:space="preserve">
<style type="text/css">
	.st0{fill:#FFFFFF;}
	.st1{fill:url(#SVGID_1_);}
	.st2{fill:url(#SVGID_00000028316708087142794390000010349792085505166491_);}
	.st3{fill:url(#SVGID_00000114760731470061693950000003709901013210738577_);}
	.st4{fill:none;stroke:#FFFFFF;stroke-miterlimit:10;}
	.st5{fill:url(#SVGID_00000173133164938089329180000017387285876309162905_);}
	.st6{fill:url(#SVGID_00000145057894538014752970000016397200283652179360_);}
	.st7{fill:url(#SVGID_00000098211360246877829560000000274946779231386534_);}
	.st8{fill:url(#SVGID_00000034082674532147418530000012620660404990985646_);}
	.st9{fill:url(#SVGID_00000160169260022292228780000008624417041224353461_);}
	.st10{fill:url(#SVGID_00000161607991170468474330000003692335735286273456_);}
	.st11{fill:url(#SVGID_00000104676761897453706830000001621576308170922670_);}
	.st12{fill:url(#SVGID_00000110466267927343650750000009104824212537950888_);}
	.st13{fill:url(#SVGID_00000009577913202227207040000009509344631766531239_);}
	.st14{fill:#2E90B9;}
</style>
<rect id="BACKGROUND" x="-3106.4" y="829.1" class="st0" width="2048" height="2048"/>
<g id="LOGO_1_">
	<linearGradient id="SVGID_1_" gradientUnits="userSpaceOnUse" x1="-1930.3035" y1="1550.022" x2="-1440.4363" y2="1550.022">
		<stop  offset="0" style="stop-color:#06003C"/>
		<stop  offset="0.18" style="stop-color:#0F2654"/>
		<stop  offset="0.4721" style="stop-color:#155B84"/>
		<stop  offset="0.9832" style="stop-color:#2F97A8"/>
	</linearGradient>
	<polygon class="st1" points="-1511.9,2001.4 -1440.4,2001.4 -1891.7,1098.6 -1930.3,1170.5 	"/>
	
		<linearGradient id="SVGID_00000014629339513673675240000005782808260915416966_" gradientUnits="userSpaceOnUse" x1="-2368.1746" y1="1302.1068" x2="-1891.7029" y2="1302.1068">
		<stop  offset="1.117320e-02" style="stop-color:#1476A7"/>
		<stop  offset="0.364" style="stop-color:#348FB2"/>
		<stop  offset="0.9832" style="stop-color:#63C7C7"/>
	</linearGradient>
	<path style="fill:url(#SVGID_00000014629339513673675240000005782808260915416966_);" d="M-1891.7,1098.6L-1891.7,1098.6
		c-3.9,1.7-253.2,110.8-476.5,479.2l74.6-147.9l167.2-331.2C-2077.6,1002.3-1940.4,1002.3-1891.7,1098.6z"/>
	
		<linearGradient id="SVGID_00000075120449333919065560000008505045601624381367_" gradientUnits="userSpaceOnUse" x1="-2513.9783" y1="1482.6519" x2="-1891.735" y2="1482.6519">
		<stop  offset="0" style="stop-color:#06003C"/>
		<stop  offset="0.18" style="stop-color:#0F2654"/>
		<stop  offset="0.4721" style="stop-color:#155B84"/>
		<stop  offset="0.9832" style="stop-color:#2F97A8"/>
	</linearGradient>
	<path style="fill:url(#SVGID_00000075120449333919065560000008505045601624381367_);" d="M-1891.7,1098.7l-276.4,514.9
		c-40.4,20.6-77.7,42.2-111.6,63.9c-4.4,2.7-8.6,5.4-12.8,8.1c-12.3,8.1-24.3,16.1-35.5,24c-3.7,2.6-7.3,5.1-10.9,7.6
		c-16.3,11.5-31.4,22.9-45.5,33.7c-3.3,2.6-6.5,5-9.7,7.6c-5.1,4-10.1,8-14.9,11.9c-3.9,3.1-7.7,6.2-11.4,9.3
		c-3.7,3.1-7.3,6.1-10.8,9.1c-1.7,1.4-3.5,2.9-5.2,4.4c-2.6,2.2-5.3,4.5-7.7,6.7c-3.9,3.4-7.6,6.7-11.2,9.9c-1.5,1.2-3,2.6-4.4,3.9
		c-8.5,7.7-16.1,14.7-22.7,21.1c-1.9,1.7-3.8,3.6-5.5,5.3c-16.2,15.8-25.1,25.5-26.1,26.6l145.8-288.8
		C-2144.9,1209.5-1895.6,1100.4-1891.7,1098.7z"/>
	<path class="st4" d="M-1442,1495c-2.5-0.4-4.9-0.8-7.3-1.1C-1445.8,1494.4-1443.4,1494.8-1442,1495z"/>
	
		<linearGradient id="SVGID_00000146500485813677909500000014408342585993910958_" gradientUnits="userSpaceOnUse" x1="-2524.1379" y1="1740.4996" x2="-1454.2184" y2="1740.4996">
		<stop  offset="1.117320e-02" style="stop-color:#083B6E"/>
		<stop  offset="5.090111e-02" style="stop-color:#0C4274"/>
		<stop  offset="0.2307" style="stop-color:#20628F"/>
		<stop  offset="0.406" style="stop-color:#2E80AA"/>
		<stop  offset="0.5727" style="stop-color:#3B9BC2"/>
		<stop  offset="0.7287" style="stop-color:#44B0D4"/>
		<stop  offset="0.8699" style="stop-color:#4ABFE1"/>
		<stop  offset="0.9832" style="stop-color:#4BC7E7"/>
	</linearGradient>
	<path style="fill:url(#SVGID_00000146500485813677909500000014408342585993910958_);" d="M-1454.2,1493.3
		c-82.9-10.5-448.6-13.7-880.8,452.5c-0.9,1-22.5,25.5-33.1,34c-13.2,10.6-34.9,21.7-63.5,21.7c-53.6,0-92.5-44.1-92.5-92.8
		c0-13.9,3.2-28.2,10.1-41.9c0,0,0,0,0.1-0.1c1-1.1,9.9-10.8,26.1-26.6c1.8-1.7,3.6-3.4,5.5-5.3c6.6-6.3,14.2-13.4,22.7-21.1
		c1.4-1.2,2.9-2.5,4.4-3.9c3.6-3.3,7.4-6.5,11.2-9.9c2.5-2.2,5.1-4.4,7.7-6.7c1.8-1.5,3.4-2.9,5.2-4.4c3.5-3,7.1-6,10.8-9
		c3.7-3.1,7.4-6.1,11.4-9.3c4.8-4,9.8-7.9,14.9-11.9c3.2-2.5,6.4-5,9.7-7.6c14.1-10.9,29.2-22.2,45.5-33.7c3.5-2.5,7.2-5.1,10.9-7.6
		c11.3-7.9,23.2-15.9,35.5-24c4.2-2.7,8.4-5.4,12.8-8.2c33.9-21.6,71.2-43.2,111.6-63.9C-1986.9,1520.8-1742.3,1448.4-1454.2,1493.3
		z"/>
</g>
<g id="TEXT">
	<g>
		<g>
			<g>
				<path d="M-2678.3,2247.1V2355h65.8v25.8h-93.7v-133.7H-2678.3z"/>
				<path d="M-2541.8,2380.8c-39,0-67.8-29.3-67.8-66.8c0-37.5,28.8-66.8,67.8-66.8c39.1,0,67.9,29.4,67.9,66.8
					C-2473.9,2351.5-2502.7,2380.8-2541.8,2380.8z M-2541.8,2272.8c-23.9,0-39.3,18.2-39.3,41.2c0,23.1,15.4,41.1,39.3,41.1
					c24,0,39.4-18,39.4-41.1C-2502.4,2291-2517.9,2272.8-2541.8,2272.8z"/>
				<path d="M-2455.4,2380.8v-133.5h65.1c11.3,0,19.1,2.1,25.5,6.2c10.8,6.6,17.7,18.5,17.7,33.7c0,8.7-2.4,16.5-6.8,22.8
					c-4.6,6.8-10.9,11.1-17.9,13.5l-1.2,0.5l33.8,56.8h-31.9l-31.5-54h-25.1v54H-2455.4z M-2393.9,2301.3c5.3,0,7.8-0.3,10.1-1.3
					c5.2-2.1,9.4-6.4,9.4-12.8c0-6.2-4-10.7-9.4-12.9c-2.2-1-4.7-1.4-10.2-1.4h-33.6v28.3H-2393.9z"/>
				<path d="M-2230.7,2247.2v25.7h-65.8v22h50.2v25.4h-50.2v34.8h65.8v25.7h-93.7v-133.6H-2230.7z"/>
				<path d="M-2194.7,2247.2l56.9,66.3l56.9-66.3h15.1v133.6h-27.8v-82.1l-44.3,52.3l-44.3-52.3v82.1h-27.8v-133.6H-2194.7z"/>
				<path d="M-1990.6,2247.1h16.6v133.7h-16.6V2247.1z"/>
				<path d="M-1947.2,2380.8v-133.6h59.3c9.2,0,15,1.4,20,3.8c12.4,5.8,20.5,18,20.5,33.1c0,14.8-8.1,27.1-20.6,33
					c-4.9,2.4-10.7,3.8-19.9,3.8h-42.8v59.9H-1947.2z M-1889.7,2305.5c6.4,0,9.8-0.7,12.8-2c7.6-3.3,13-10.2,13-19.4
					c0-9.2-5.4-16.2-13-19.4c-3-1.3-6.4-2-12.9-2h-41v42.7H-1889.7z"/>
				<path d="M-1824.7,2344.4c12,13.1,27.7,20.6,43.3,20.7c18.9,0,31.3-10.9,31.3-24.5c0-16.8-18.9-20.6-38.8-24.8
					c-21.6-4.5-43.3-10.5-43.3-33.5c0-19.7,16.3-35.2,43.8-35.3c16.1,0,33.3,6.5,46.4,19.3l-10.3,11.6c-9.4-9.6-22.8-15.4-36.4-15.4
					c-16.6,0-27.3,8.2-27.3,19c0,12.4,13.5,15.5,34.7,19.5c19.4,3.7,47.5,10.2,47.5,39.9c0,22.5-19.6,39.9-47.5,39.9
					c-18.2,0-37.9-7.7-54.1-24.7L-1824.7,2344.4z"/>
				<path d="M-1698.1,2247.1v77.2c0,7.5,0.7,12.1,2.1,16.3c4.7,14.4,17.4,24.6,34.1,24.6c17,0,29.6-10.2,34.4-24.6
					c1.4-4.2,2-8.8,2-16.3v-77.2h16.6v77.2c0,9.7-1.3,16.2-3.5,22.2c-7.1,20.3-25.4,34.4-49.4,34.4s-42.3-14.1-49.5-34.4
					c-2.1-6-3.3-12.5-3.3-22.2v-77.2H-1698.1z"/>
				<path d="M-1574,2247.1l58.4,73.1l58.4-73.1h8.7v133.7h-16.5v-100.6l-50.7,64.1l-50.5-64.1v100.6h-16.6v-133.7H-1574z"/>
			</g>
			<g>
				<path d="M-2510.5,2473.8c-2.5-8.2-9.1-13.4-17.9-13.4c-10.9,0-18.6,8.3-18.6,19.2c0,10.5,7.6,19.1,18.6,19.1
					c8.8,0,15.4-5.2,18-13.6l8.8,2.7c-3.3,11.6-14,19.4-26.8,19.4c-15.6,0-28.1-11.9-28.1-27.7c0-15.6,12.1-27.7,28.1-27.7
					c12.4,0,23,7.1,26.6,19L-2510.5,2473.8z"/>
				<path d="M-2452.9,2507.2c-16.1,0-28-12.1-28-27.7s11.9-27.7,28-27.7c16.1,0,28.1,12.1,28.1,27.7S-2436.8,2507.2-2452.9,2507.2z
					 M-2452.9,2460.4c-11,0-18.6,8.3-18.6,19.1c0,10.8,7.6,19,18.6,19c11.1,0,18.6-8.3,18.6-19
					C-2434.3,2468.8-2441.8,2460.4-2452.9,2460.4z"/>
				<path d="M-2396,2451.9l23.9,28.9l23.9-28.9h5v55.4h-9.2v-37.8l-19.6,24.1l-19.7-24.1v37.8h-9.2v-55.4H-2396z"/>
				<path d="M-2316.8,2507.2v-55.4h25.8c4.3,0,7.1,0.7,9.5,2.1c4.8,2.6,7.9,7.6,7.9,13.8c0,6.1-3.1,11.2-7.9,13.8
					c-2.4,1.4-5.2,2.1-9.4,2.1h-16.6v23.5H-2316.8z M-2292.1,2475.1c2.4,0,3.7-0.2,4.8-0.7c2.6-1.1,4.6-3.4,4.6-6.6
					c0-3.2-1.9-5.6-4.6-6.7c-1.1-0.5-2.3-0.7-4.8-0.7h-15.4v14.7H-2292.1z"/>
				<path d="M-2220.6,2497h-26.2l-4,10.3h-9.7l22.2-55.4h9.1l22.2,55.4h-9.7L-2220.6,2497z M-2243.6,2488.5h19.7l-9.9-25.6
					L-2243.6,2488.5z"/>
				<path d="M-2185.4,2507.2v-55.4h5l34.5,38.6v-38.6h9.2v55.4h-5l-34.6-38.7v38.7H-2185.4z"/>
				<path d="M-2095.1,2507.2v-21.9l-19.9-33.5h10.7l13.8,24.1l13.8-24.1h10.7l-19.9,33.5v21.9H-2095.1z"/>
				<path d="M-2005.6,2490.7c4.8,4.8,10.9,7.8,17.1,7.8c6.3,0,11.4-3.2,11.4-8.1c0-6.1-7.9-7.2-16.1-8.9
					c-9.1-1.9-17.2-5.1-17.2-14.3c0-8.6,6.9-15.5,18.9-15.5c6.8,0,14.1,2.5,19.8,7.6l-5.4,6.5c-3.8-3.5-9.2-5.6-14.5-5.6
					c-5.4,0-9.8,2.4-9.8,6.3c0,4.4,5.1,5.6,13.4,7.1c8.7,1.5,20.1,4.4,20.1,16.9c0,9.5-8.7,16.7-20.4,16.7c-7.5,0-15.8-2.9-23-9.9
					L-2005.6,2490.7z"/>
				<path d="M-1935.2,2451.8v46.8h28.5v8.7h-37.7v-55.4H-1935.2z"/>
				<path d="M-1861.2,2507.2c-16.1,0-28-12.1-28-27.7s11.9-27.7,28-27.7c16.1,0,28.1,12.1,28.1,27.7S-1845.1,2507.2-1861.2,2507.2z
					 M-1861.2,2460.4c-11,0-18.6,8.3-18.6,19.1c0,10.8,7.6,19,18.6,19c11.1,0,18.6-8.3,18.6-19
					C-1842.6,2468.8-1850.1,2460.4-1861.2,2460.4z"/>
				<path d="M-1771.6,2464.9c-3.3-2.9-7.5-4.6-12.3-4.6c-11,0-18.7,8.3-18.7,19.2c0,10.5,7.7,19.1,18.7,19.1
					c9.7,0,17.5-6.7,18.5-17.4h-19.4v-8.6h27.9c0.5,2.2,0.8,4.5,0.8,6.9c0,15.6-12,27.7-27.9,27.7c-15.5,0-28.1-11.7-28.1-27.7
					c0-15.6,12.1-27.7,28.1-27.7c6.7,0,12.9,2.1,17.7,6L-1771.6,2464.9z"/>
				<path d="M-1699.7,2497h-26.2l-4,10.3h-9.7l22.2-55.4h9.1l22.2,55.4h-9.7L-1699.7,2497z M-1722.7,2488.5h19.7l-9.9-25.6
					L-1722.7,2488.5z"/>
				<path d="M-1664.5,2507.2v-55.4h5l34.5,38.6v-38.6h9.2v55.4h-5l-34.6-38.7v38.7H-1664.5z"/>
			</g>
		</g>
	</g>
</g>
<g id="LOGO_00000136395179425285290740000013693236796763407779_">
	
		<linearGradient id="SVGID_00000165917693397747060230000003648388718013553312_" gradientUnits="userSpaceOnUse" x1="30.7938" y1="26.9833" x2="54.9099" y2="26.9833">
		<stop  offset="0" style="stop-color:#06003C"/>
		<stop  offset="0.18" style="stop-color:#0F2654"/>
		<stop  offset="0.4721" style="stop-color:#155B84"/>
		<stop  offset="0.9832" style="stop-color:#2F97A8"/>
	</linearGradient>
	<polygon style="fill:url(#SVGID_00000165917693397747060230000003648388718013553312_);" points="51.4,49.2 54.9,49.2 32.7,4.8 
		30.8,8.3 	"/>
	
		<linearGradient id="SVGID_00000177450386053004171800000017253039015542402964_" gradientUnits="userSpaceOnUse" x1="9.2375" y1="14.7785" x2="32.6941" y2="14.7785">
		<stop  offset="1.117320e-02" style="stop-color:#1476A7"/>
		<stop  offset="0.364" style="stop-color:#348FB2"/>
		<stop  offset="0.9832" style="stop-color:#63C7C7"/>
	</linearGradient>
	<path style="fill:url(#SVGID_00000177450386053004171800000017253039015542402964_);" d="M32.7,4.8L32.7,4.8
		c-0.2,0.1-12.5,5.5-23.5,23.6l3.7-7.3l8.2-16.3C23.5,0,30.3,0,32.7,4.8z"/>
	
		<linearGradient id="SVGID_00000059292183484483645180000001180058490918015619_" gradientUnits="userSpaceOnUse" x1="2.0596" y1="23.6667" x2="32.6925" y2="23.6667">
		<stop  offset="0" style="stop-color:#06003C"/>
		<stop  offset="0.18" style="stop-color:#0F2654"/>
		<stop  offset="0.4721" style="stop-color:#155B84"/>
		<stop  offset="0.9832" style="stop-color:#2F97A8"/>
	</linearGradient>
	<path style="fill:url(#SVGID_00000059292183484483645180000001180058490918015619_);" d="M32.7,4.8L19.1,30.1c-2,1-3.8,2.1-5.5,3.1
		c-0.2,0.1-0.4,0.3-0.6,0.4c-0.6,0.4-1.2,0.8-1.8,1.2c-0.2,0.1-0.4,0.2-0.5,0.4c-0.8,0.6-1.5,1.1-2.2,1.7C8.3,37,8.1,37.1,8,37.2
		c-0.3,0.2-0.5,0.4-0.7,0.6C7,38,6.8,38.1,6.7,38.3c-0.2,0.2-0.4,0.3-0.5,0.4C6,38.8,6,38.9,5.9,39c-0.1,0.1-0.3,0.2-0.4,0.3
		c-0.2,0.2-0.4,0.3-0.6,0.5c-0.1,0.1-0.1,0.1-0.2,0.2c-0.4,0.4-0.8,0.7-1.1,1c-0.1,0.1-0.2,0.2-0.3,0.3c-0.8,0.8-1.2,1.3-1.3,1.3
		l7.2-14.2C20.2,10.2,32.5,4.8,32.7,4.8z"/>
	<path class="st4" d="M54.8,24.3c-0.1,0-0.2,0-0.4-0.1C54.6,24.2,54.8,24.3,54.8,24.3z"/>
	
		<linearGradient id="SVGID_00000171719296701282538630000015990376352301506198_" gradientUnits="userSpaceOnUse" x1="1.5594" y1="36.3605" x2="54.2314" y2="36.3605">
		<stop  offset="1.117320e-02" style="stop-color:#083B6E"/>
		<stop  offset="5.090111e-02" style="stop-color:#0C4274"/>
		<stop  offset="0.2307" style="stop-color:#20628F"/>
		<stop  offset="0.406" style="stop-color:#2E80AA"/>
		<stop  offset="0.5727" style="stop-color:#3B9BC2"/>
		<stop  offset="0.7287" style="stop-color:#44B0D4"/>
		<stop  offset="0.8699" style="stop-color:#4ABFE1"/>
		<stop  offset="0.9832" style="stop-color:#4BC7E7"/>
	</linearGradient>
	<path style="fill:url(#SVGID_00000171719296701282538630000015990376352301506198_);" d="M54.2,24.2c-4.1-0.5-22.1-0.7-43.4,22.3
		c0,0-1.1,1.3-1.6,1.7c-0.7,0.5-1.7,1.1-3.1,1.1c-2.6,0-4.6-2.2-4.6-4.6c0-0.7,0.2-1.4,0.5-2.1c0,0,0,0,0,0c0-0.1,0.5-0.5,1.3-1.3
		c0.1-0.1,0.2-0.2,0.3-0.3c0.3-0.3,0.7-0.7,1.1-1c0.1-0.1,0.1-0.1,0.2-0.2c0.2-0.2,0.4-0.3,0.6-0.5c0.1-0.1,0.2-0.2,0.4-0.3
		C6,38.9,6,38.8,6.1,38.7c0.2-0.1,0.3-0.3,0.5-0.4C6.8,38.1,7,38,7.2,37.8c0.2-0.2,0.5-0.4,0.7-0.6c0.2-0.1,0.3-0.2,0.5-0.4
		c0.7-0.5,1.4-1.1,2.2-1.7c0.2-0.1,0.4-0.3,0.5-0.4c0.6-0.4,1.1-0.8,1.7-1.2c0.2-0.1,0.4-0.3,0.6-0.4c1.7-1.1,3.5-2.1,5.5-3.1
		C28,25.5,40,22,54.2,24.2z"/>
</g>
<g id="LOGO_00000031171836367236782420000002380597374848735678_">
	
		<linearGradient id="SVGID_00000054232265422639890800000009447442444235908782_" gradientUnits="userSpaceOnUse" x1="-307.5761" y1="-39.5611" x2="-221.6901" y2="-39.5611">
		<stop  offset="0" style="stop-color:#06003C"/>
		<stop  offset="0.18" style="stop-color:#0F2654"/>
		<stop  offset="0.4721" style="stop-color:#155B84"/>
		<stop  offset="0.9832" style="stop-color:#2F97A8"/>
	</linearGradient>
	<polygon style="fill:url(#SVGID_00000054232265422639890800000009447442444235908782_);" points="-234.2,39.6 -221.7,39.6 
		-300.8,-118.7 -307.6,-106.1 	"/>
	
		<linearGradient id="SVGID_00000079474349490130242280000009113546689685679551_" gradientUnits="userSpaceOnUse" x1="-384.3459" y1="-83.0268" x2="-300.8084" y2="-83.0268">
		<stop  offset="1.117320e-02" style="stop-color:#1476A7"/>
		<stop  offset="0.364" style="stop-color:#348FB2"/>
		<stop  offset="0.9832" style="stop-color:#63C7C7"/>
	</linearGradient>
	<path style="fill:url(#SVGID_00000079474349490130242280000009113546689685679551_);" d="M-300.8-118.7L-300.8-118.7
		c-0.7,0.3-44.4,19.4-83.5,84l13.1-25.9l29.3-58.1C-333.4-135.6-309.4-135.6-300.8-118.7z"/>
	
		<linearGradient id="SVGID_00000074407729368770071750000007114220955408658563_" gradientUnits="userSpaceOnUse" x1="-409.9089" y1="-51.3727" x2="-300.8141" y2="-51.3727">
		<stop  offset="0" style="stop-color:#06003C"/>
		<stop  offset="0.18" style="stop-color:#0F2654"/>
		<stop  offset="0.4721" style="stop-color:#155B84"/>
		<stop  offset="0.9832" style="stop-color:#2F97A8"/>
	</linearGradient>
	<path style="fill:url(#SVGID_00000074407729368770071750000007114220955408658563_);" d="M-300.8-118.7l-48.5,90.3
		c-7.1,3.6-13.6,7.4-19.6,11.2c-0.8,0.5-1.5,1-2.2,1.4c-2.2,1.4-4.3,2.8-6.2,4.2c-0.6,0.4-1.3,0.9-1.9,1.3c-2.9,2-5.5,4-8,5.9
		c-0.6,0.4-1.1,0.9-1.7,1.3c-0.9,0.7-1.8,1.4-2.6,2.1c-0.7,0.5-1.4,1.1-2,1.6c-0.6,0.5-1.3,1.1-1.9,1.6c-0.3,0.2-0.6,0.5-0.9,0.8
		c-0.5,0.4-0.9,0.8-1.4,1.2c-0.7,0.6-1.3,1.2-2,1.7c-0.3,0.2-0.5,0.4-0.8,0.7c-1.5,1.4-2.8,2.6-4,3.7c-0.3,0.3-0.7,0.6-1,0.9
		c-2.8,2.8-4.4,4.5-4.6,4.7l25.6-50.6C-345.2-99.3-301.5-118.4-300.8-118.7z"/>
	<path class="st4" d="M-222-49.2c-0.4-0.1-0.9-0.1-1.3-0.2C-222.6-49.3-222.2-49.3-222-49.2z"/>
	
		<linearGradient id="SVGID_00000143586845278269767060000000808459760186833807_" gradientUnits="userSpaceOnUse" x1="-411.6901" y1="-6.1656" x2="-224.1065" y2="-6.1656">
		<stop  offset="1.117320e-02" style="stop-color:#083B6E"/>
		<stop  offset="5.090111e-02" style="stop-color:#0C4274"/>
		<stop  offset="0.2307" style="stop-color:#20628F"/>
		<stop  offset="0.406" style="stop-color:#2E80AA"/>
		<stop  offset="0.5727" style="stop-color:#3B9BC2"/>
		<stop  offset="0.7287" style="stop-color:#44B0D4"/>
		<stop  offset="0.8699" style="stop-color:#4ABFE1"/>
		<stop  offset="0.9832" style="stop-color:#4BC7E7"/>
	</linearGradient>
	<path style="fill:url(#SVGID_00000143586845278269767060000000808459760186833807_);" d="M-224.1-49.5
		c-14.5-1.8-78.7-2.4-154.4,79.3c-0.2,0.2-3.9,4.5-5.8,6c-2.3,1.9-6.1,3.8-11.1,3.8c-9.4,0-16.2-7.7-16.2-16.3
		c0-2.4,0.6-4.9,1.8-7.3c0,0,0,0,0,0c0.2-0.2,1.7-1.9,4.6-4.7c0.3-0.3,0.6-0.6,1-0.9c1.2-1.1,2.5-2.3,4-3.7c0.2-0.2,0.5-0.4,0.8-0.7
		c0.6-0.6,1.3-1.1,2-1.7c0.4-0.4,0.9-0.8,1.4-1.2c0.3-0.3,0.6-0.5,0.9-0.8c0.6-0.5,1.2-1,1.9-1.6c0.6-0.5,1.3-1.1,2-1.6
		c0.8-0.7,1.7-1.4,2.6-2.1c0.6-0.4,1.1-0.9,1.7-1.3c2.5-1.9,5.1-3.9,8-5.9c0.6-0.4,1.3-0.9,1.9-1.3c2-1.4,4.1-2.8,6.2-4.2
		c0.7-0.5,1.5-1,2.2-1.4c5.9-3.8,12.5-7.6,19.6-11.2C-317.5-44.7-274.6-57.4-224.1-49.5z"/>
</g>
<g>
	<path class="st14" d="M63.6,47.8h-5.4l-7-20.1h5.6l4,14.1l3.6-12.3c0.4-1.2,1.2-1.8,2.4-1.8h3.9L63.6,47.8z"/>
	<path class="st14" d="M84.2,47c-1.1,0.6-2.2,0.9-3.4,1c-1.2,0.1-2.2,0.2-3.1,0.2c-1.8,0-3.4-0.5-4.8-1.5c-1.4-1-2-2.6-2-4.9
		c0-2.1,0.6-3.6,1.9-4.5c1.2-0.9,2.8-1.5,4.7-1.8c0.3,0,0.6,0,0.9-0.1c0.4-0.1,0.8-0.1,1.2-0.2c2.2-0.3,3.3-1,3.3-2
		c0-0.8-0.4-1.2-1.2-1.5c-0.8-0.2-1.5-0.3-2.2-0.3c-0.7,0-1.3,0.1-1.9,0.3c-0.6,0.2-1,0.6-1.2,1.1h-5.1c0.2-1.6,0.9-2.8,2.1-3.9
		c1.4-1.2,3.3-1.7,5.8-1.7c2.8,0,4.9,0.5,6.3,1.4c1.5,1,2.2,2.4,2.2,4.2v6.9c0,2-0.4,3.6-1.1,4.7C86.1,45.7,85.2,46.5,84.2,47z
		 M83,37.7c-0.7,0.4-1.7,0.7-2.9,1l-1.7,0.4c-0.9,0.3-1.6,0.6-2,1c-0.4,0.6-0.5,1.1-0.5,1.7c0,0.8,0.2,1.4,0.7,1.8
		c0.5,0.4,1.1,0.6,2,0.6c1.4,0,2.5-0.4,3.3-1.2c0.8-0.8,1.2-1.9,1.2-3.3V37.7z"/>
	<path class="st14" d="M90.3,21.8h2.7c0.7,0,1.3,0.2,1.8,0.7c0.5,0.5,0.8,1.1,0.8,1.8v23.5h-5.3V21.8z"/>
	<path class="st14" d="M100.4,46c-1.1-0.9-1.8-2.1-2.3-3.7c-0.5-1.5-0.7-3.1-0.7-4.8c0-1.4,0.2-2.7,0.6-4.1c0.4-1.4,1-2.5,1.8-3.4
		c1.3-1.5,3-2.4,5.1-2.7c2.1-0.3,3.9-0.1,5.6,0.5c1.9,0.8,3.3,2.1,4.2,3.9c0.9,1.7,1.3,3.6,1.3,5.8c0,1.6-0.2,3-0.5,4.2
		c-0.4,1.2-0.8,2.1-1.4,2.9c-1.2,1.7-2.7,2.7-4.6,3.1c-1.7,0.5-3.3,0.5-5,0.1C102.8,47.6,101.4,46.9,100.4,46z M104.1,32.7
		c-1.1,1.2-1.5,2.9-1.4,5.2c0.1,2.3,0.5,3.9,1.3,4.8c0.3,0.4,0.8,0.7,1.6,1c0.8,0.3,1.5,0.3,2.3,0.1c0.8-0.2,1.5-0.8,2.1-1.7
		c0.6-0.9,0.9-2.4,1-4.4c0-1.8-0.3-3.2-0.9-4.1c-0.6-0.9-1.2-1.5-2-1.7c-0.8-0.3-1.5-0.3-2.3,0C105,32.1,104.4,32.4,104.1,32.7z"/>
	<path class="st14" d="M135.5,27.7v11.8c0,3.6-0.9,5.9-2.8,7c-1.9,1.1-3.9,1.7-6.1,1.7c-2.2-0.1-4.1-0.7-5.9-1.8
		c-1.8-1.1-2.7-3.4-2.7-6.9V27.7h5.3v12.8c0,1.2,0.4,2.1,1.1,2.6c0.7,0.6,1.5,0.8,2.4,0.8c0.9,0,1.7-0.3,2.5-0.8
		c0.7-0.6,1.1-1.4,1.1-2.6V30.3c0-0.7,0.2-1.3,0.7-1.8c0.5-0.5,1.1-0.8,1.9-0.8H135.5z"/>
	<path class="st14" d="M137.7,47.8v-9.8c0-2,0.3-3.6,0.9-5c0.6-1.3,1.4-2.4,2.4-3.2c1-0.8,2.1-1.3,3.4-1.7c1.3-0.4,2.6-0.5,4-0.5
		c0.1,0,0.2,0,0.4,0c0.2,0,0.3,0,0.4,0v5.4h-1.7c-1.5,0-2.5,0.4-3.3,1.1c-0.7,0.7-1.1,1.8-1.1,3.3v10.4H137.7z"/>
</g>
</svg>
