<?xml version="1.0" encoding="utf-8"?>
<!-- Generator: Adobe Illustrator 26.1.0, SVG Export Plug-In . SVG Version: 6.00 Build 0)  -->
<svg version="1.1" id="Layer_1" xmlns="http://www.w3.org/2000/svg" xmlns:xlink="http://www.w3.org/1999/xlink" x="0px" y="0px"
	 viewBox="0 0 75 75" enable-background="new 0 0 75 75" xml:space="preserve">
<g>
	<g>
		<g>
			
				<radialGradient id="SVGID_1_" cx="1331.677" cy="12.6281" r="47.9042" gradientTransform="matrix(-1 0 0 1 1360.1875 0)" gradientUnits="userSpaceOnUse">
				<stop  offset="0" style="stop-color:#BAD0D6"/>
				<stop  offset="0.198" style="stop-color:#9BBAC2"/>
				<stop  offset="1" style="stop-color:#5D8BB8"/>
			</radialGradient>
			<path fill="url(#SVGID_1_)" d="M35.7,7.3c9.1,0,16.7,6.3,18.8,14.7c1.7-0.8,3.5-1.3,5.5-1.3c6.9,0,12.6,5.6,12.6,12.6
				c0,6.9-5.6,12.6-12.6,12.6H35.7c-10.7,0-19.3-8.6-19.3-19.3C16.4,16,25.1,7.3,35.7,7.3z"/>
			
				<radialGradient id="SVGID_00000175285060647560583030000016653499160145943176_" cx="513.7509" cy="-2385.4224" r="5.6212" gradientTransform="matrix(0.8392 1.1536 1.6186 -1.3126 3458.4595 -3704.4846)" gradientUnits="userSpaceOnUse">
				<stop  offset="0" style="stop-color:#FFFFFF"/>
				<stop  offset="1" style="stop-color:#FFFFFF;stop-opacity:0"/>
			</radialGradient>
			<path opacity="0.5" fill="url(#SVGID_00000175285060647560583030000016653499160145943176_)" d="M33.3,25.8
				c5-4.1,7-10.3,4.4-13.9c-2.6-3.6-8.8-3.2-13.8,0.9c-5,4.1-7,10.3-4.4,13.9C22.1,30.2,28.2,29.8,33.3,25.8z"/>
			
				<radialGradient id="SVGID_00000016043210049614080280000003026008248822495916_" cx="530.3459" cy="-2377.0952" r="3.0896" gradientTransform="matrix(0.8392 1.1536 1.6186 -1.3126 3458.4595 -3704.4846)" gradientUnits="userSpaceOnUse">
				<stop  offset="0" style="stop-color:#FFFFFF"/>
				<stop  offset="1" style="stop-color:#FFFFFF;stop-opacity:0"/>
			</radialGradient>
			<path opacity="0.3" fill="url(#SVGID_00000016043210049614080280000003026008248822495916_)" d="M58.6,31.1
				c2.8-2.2,3.8-5.7,2.4-7.6c-1.4-2-4.8-1.7-7.6,0.5c-2.8,2.2-3.8,5.7-2.4,7.6C52.4,33.5,55.8,33.3,58.6,31.1z"/>
			
				<radialGradient id="SVGID_00000086683143100161062080000011870697539972588202_" cx="1467.5206" cy="69.23" r="3.2304" gradientTransform="matrix(-0.7056 -0.4583 -1.3993 1.8312 1198.5986 584.6627)" gradientUnits="userSpaceOnUse">
				<stop  offset="0" style="stop-color:#FFFFFF"/>
				<stop  offset="1" style="stop-color:#FFFFFF;stop-opacity:0"/>
			</radialGradient>
			<path opacity="0.2" fill="url(#SVGID_00000086683143100161062080000011870697539972588202_)" d="M64.7,35.9c3-3.1,6.2-4.3,7-2.7
				c0.8,1.6-1,5.4-4,8.4c-3,3.1-6.2,4.3-7,2.7C59.9,42.8,61.6,39,64.7,35.9z"/>
		</g>
		<g>
			
				<radialGradient id="SVGID_00000119833102346496808840000014038197079790515585_" cx="1345.6266" cy="23.0596" r="47.9035" gradientTransform="matrix(-1 0 0 1 1360.1875 0)" gradientUnits="userSpaceOnUse">
				<stop  offset="0" style="stop-color:#FFFFFF"/>
				<stop  offset="0.198" style="stop-color:#D9F7FF"/>
				<stop  offset="1" style="stop-color:#89C0F5"/>
			</radialGradient>
			<path fill="url(#SVGID_00000119833102346496808840000014038197079790515585_)" d="M21.8,17.8c9.1,0,16.7,6.3,18.7,14.7
				c1.7-0.8,3.5-1.3,5.5-1.3c6.9,0,12.6,5.6,12.6,12.6S52.9,56.3,46,56.3H21.8c-10.7,0-19.3-8.6-19.3-19.3S11.1,17.8,21.8,17.8z"/>
			
				<radialGradient id="SVGID_00000178192507815902914560000011199270238779268784_" cx="513.2708" cy="-2393.7913" r="5.6211" gradientTransform="matrix(0.8392 1.1536 1.6186 -1.3126 3458.4595 -3704.4846)" gradientUnits="userSpaceOnUse">
				<stop  offset="0" style="stop-color:#FFFFFF"/>
				<stop  offset="1" style="stop-color:#FFFFFF;stop-opacity:0"/>
			</radialGradient>
			<path fill="url(#SVGID_00000178192507815902914560000011199270238779268784_)" d="M19.3,36.2c5-4.1,7-10.3,4.4-13.9
				c-2.6-3.6-8.8-3.2-13.8,0.9c-5,4.1-7,10.3-4.4,13.9C8.1,40.7,14.3,40.3,19.3,36.2z"/>
			
				<radialGradient id="SVGID_00000123432659192694537990000014261877904556057771_" cx="529.8658" cy="-2385.4639" r="3.0891" gradientTransform="matrix(0.8392 1.1536 1.6186 -1.3126 3458.4595 -3704.4846)" gradientUnits="userSpaceOnUse">
				<stop  offset="0" style="stop-color:#FFFFFF"/>
				<stop  offset="1" style="stop-color:#FFFFFF;stop-opacity:0"/>
			</radialGradient>
			<path opacity="0.4" fill="url(#SVGID_00000123432659192694537990000014261877904556057771_)" d="M44.6,41.5
				c2.8-2.2,3.8-5.7,2.4-7.6c-1.4-2-4.8-1.7-7.6,0.5C36.7,36.6,35.6,40,37,42C38.4,44,41.8,43.7,44.6,41.5z"/>
			
				<radialGradient id="SVGID_00000034795753969841058830000016671203409386234774_" cx="1481.6055" cy="85.4319" r="3.2303" gradientTransform="matrix(-0.7056 -0.4583 -1.3993 1.8312 1217.2587 571.8803)" gradientUnits="userSpaceOnUse">
				<stop  offset="0" style="stop-color:#FFFFFF"/>
				<stop  offset="1" style="stop-color:#FFFFFF;stop-opacity:0"/>
			</radialGradient>
			<path opacity="0.2" fill="url(#SVGID_00000034795753969841058830000016671203409386234774_)" d="M50.7,46.4c3-3.1,6.2-4.3,7-2.7
				c0.8,1.6-1,5.4-4,8.4c-3,3.1-6.2,4.3-7,2.7C45.9,53.2,47.7,49.4,50.7,46.4z"/>
		</g>
	</g>
	<g>
		<g>
			
				<radialGradient id="SVGID_00000144315560767207015100000001740745680337292196_" cx="-260.773" cy="-18.5383" r="6.7221" gradientTransform="matrix(0.866 0.5 -0.5 0.866 233.0838 212.0765)" gradientUnits="userSpaceOnUse">
				<stop  offset="0" style="stop-color:#D4F6FF"/>
				<stop  offset="0.198" style="stop-color:#D9F7FF"/>
				<stop  offset="1" style="stop-color:#89C0F5"/>
			</radialGradient>
			<path fill="url(#SVGID_00000144315560767207015100000001740745680337292196_)" d="M20.3,66.3c-0.8,1.3-2.5,1.8-3.8,1
				c-1.3-0.8-1.8-2.5-1-3.8c0.8-1.3,5.5-4,5.5-4S21,64.9,20.3,66.3z"/>
			
				<radialGradient id="SVGID_00000173865674529555723260000017350317394015969978_" cx="1196.981" cy="-1755.7622" r="1.0531" gradientTransform="matrix(-1.3036 0.5794 -0.7454 -1.946 268.5176 -4045.0466)" gradientUnits="userSpaceOnUse">
				<stop  offset="0" style="stop-color:#FFFFFF"/>
				<stop  offset="1" style="stop-color:#FFFFFF;stop-opacity:0"/>
			</radialGradient>
			<path fill="url(#SVGID_00000173865674529555723260000017350317394015969978_)" d="M15.5,65.8c-0.4-1.1-0.2-2.3,0.6-2.7
				c0.8-0.3,1.7,0.3,2.2,1.4c0.4,1.1,0.2,2.3-0.6,2.7C16.9,67.6,15.9,66.9,15.5,65.8z"/>
		</g>
		<g>
			
				<radialGradient id="SVGID_00000117639574275888717100000018372766098943472033_" cx="-247.4431" cy="-26.2353" r="6.7222" gradientTransform="matrix(0.866 0.5 -0.5 0.866 233.0838 212.0765)" gradientUnits="userSpaceOnUse">
				<stop  offset="0" style="stop-color:#D4F6FF"/>
				<stop  offset="0.198" style="stop-color:#D9F7FF"/>
				<stop  offset="1" style="stop-color:#89C0F5"/>
			</radialGradient>
			<path fill="url(#SVGID_00000117639574275888717100000018372766098943472033_)" d="M35.7,66.3c-0.8,1.3-2.5,1.8-3.8,1
				c-1.3-0.8-1.8-2.5-1-3.8c0.8-1.3,5.5-4,5.5-4S36.4,64.9,35.7,66.3z"/>
			
				<radialGradient id="SVGID_00000134219744886487459320000004046650197508972687_" cx="1186.891" cy="-1758.7664" r="1.0528" gradientTransform="matrix(-1.3036 0.5794 -0.7454 -1.946 268.5176 -4045.0466)" gradientUnits="userSpaceOnUse">
				<stop  offset="0" style="stop-color:#FFFFFF"/>
				<stop  offset="1" style="stop-color:#FFFFFF;stop-opacity:0"/>
			</radialGradient>
			<path fill="url(#SVGID_00000134219744886487459320000004046650197508972687_)" d="M30.9,65.8c-0.4-1.1-0.2-2.3,0.6-2.7
				c0.8-0.3,1.7,0.3,2.2,1.4c0.4,1.1,0.2,2.3-0.6,2.7C32.3,67.6,31.3,66.9,30.9,65.8z"/>
		</g>
		<g>
			
				<radialGradient id="SVGID_00000132776989988126677750000016625815926539962542_" cx="-234.112" cy="-33.9321" r="6.7221" gradientTransform="matrix(0.866 0.5 -0.5 0.866 233.0838 212.0765)" gradientUnits="userSpaceOnUse">
				<stop  offset="0" style="stop-color:#D4F6FF"/>
				<stop  offset="0.198" style="stop-color:#D9F7FF"/>
				<stop  offset="1" style="stop-color:#89C0F5"/>
			</radialGradient>
			<path fill="url(#SVGID_00000132776989988126677750000016625815926539962542_)" d="M51,66.3c-0.8,1.3-2.5,1.8-3.8,1
				c-1.3-0.8-1.8-2.5-1-3.8c0.8-1.3,5.5-4,5.5-4S51.8,64.9,51,66.3z"/>
			
				<radialGradient id="SVGID_00000075849712614977697210000018155464217288228543_" cx="1176.8007" cy="-1761.7708" r="1.0528" gradientTransform="matrix(-1.3036 0.5794 -0.7454 -1.946 268.5176 -4045.0466)" gradientUnits="userSpaceOnUse">
				<stop  offset="0" style="stop-color:#FFFFFF"/>
				<stop  offset="1" style="stop-color:#FFFFFF;stop-opacity:0"/>
			</radialGradient>
			<path fill="url(#SVGID_00000075849712614977697210000018155464217288228543_)" d="M46.3,65.8c-0.4-1.1-0.2-2.3,0.6-2.7
				c0.8-0.3,1.7,0.3,2.2,1.4c0.4,1.1,0.2,2.3-0.6,2.7C47.7,67.6,46.7,66.9,46.3,65.8z"/>
		</g>
	</g>
	<g>
		<g>
			
				<radialGradient id="SVGID_00000002376199618707552570000003667964132049994138_" cx="-257.5783" cy="-29.964" r="9.5566" gradientTransform="matrix(0.866 0.5 -0.5 0.866 233.0838 212.0765)" gradientUnits="userSpaceOnUse">
				<stop  offset="0" style="stop-color:#D4F6FF"/>
				<stop  offset="0.198" style="stop-color:#D9F7FF"/>
				<stop  offset="1" style="stop-color:#89C0F5"/>
			</radialGradient>
			<path fill="url(#SVGID_00000002376199618707552570000003667964132049994138_)" d="M30.3,58.2c-1.1,1.9-3.5,2.5-5.4,1.5
				c-1.9-1.1-2.5-3.5-1.5-5.4c1.1-1.9,7.9-5.7,7.9-5.7S31.4,56.3,30.3,58.2z"/>
			
				<radialGradient id="SVGID_00000173844846575641869140000006465854967832550823_" cx="1189.1947" cy="-1753.7217" r="1.4969" gradientTransform="matrix(-1.3036 0.5794 -0.7454 -1.946 268.5176 -4045.0466)" gradientUnits="userSpaceOnUse">
				<stop  offset="0" style="stop-color:#FFFFFF"/>
				<stop  offset="1" style="stop-color:#FFFFFF;stop-opacity:0"/>
			</radialGradient>
			<path fill="url(#SVGID_00000173844846575641869140000006465854967832550823_)" d="M23.6,57.6c-0.6-1.6-0.2-3.3,0.8-3.8
				c1.1-0.5,2.5,0.4,3.1,2c0.6,1.6,0.2,3.3-0.8,3.8C25.5,60.1,24.2,59.2,23.6,57.6z"/>
		</g>
		<g>
			
				<radialGradient id="SVGID_00000094579656846642531920000001736116169528199069_" cx="-243.1945" cy="-38.2699" r="9.5561" gradientTransform="matrix(0.866 0.5 -0.5 0.866 233.0838 212.0765)" gradientUnits="userSpaceOnUse">
				<stop  offset="0" style="stop-color:#D4F6FF"/>
				<stop  offset="0.198" style="stop-color:#D9F7FF"/>
				<stop  offset="1" style="stop-color:#89C0F5"/>
			</radialGradient>
			<path fill="url(#SVGID_00000094579656846642531920000001736116169528199069_)" d="M46.9,58.2c-1.1,1.9-3.5,2.5-5.4,1.5
				c-1.9-1.1-2.6-3.5-1.5-5.4c1.1-1.9,7.9-5.7,7.9-5.7S48,56.3,46.9,58.2z"/>
			
				<radialGradient id="SVGID_00000103946447318244676550000013312681647374244500_" cx="1178.3069" cy="-1756.9634" r="1.4966" gradientTransform="matrix(-1.3036 0.5794 -0.7454 -1.946 268.5176 -4045.0466)" gradientUnits="userSpaceOnUse">
				<stop  offset="0" style="stop-color:#FFFFFF"/>
				<stop  offset="1" style="stop-color:#FFFFFF;stop-opacity:0"/>
			</radialGradient>
			<path fill="url(#SVGID_00000103946447318244676550000013312681647374244500_)" d="M40.2,57.6c-0.6-1.6-0.2-3.3,0.8-3.8
				c1.1-0.5,2.5,0.4,3.1,2c0.6,1.6,0.2,3.3-0.8,3.8C42.2,60.1,40.8,59.2,40.2,57.6z"/>
		</g>
	</g>
</g>
</svg>
