<?xml version="1.0" encoding="utf-8"?>
<!-- Generator: Adobe Illustrator 26.1.0, SVG Export Plug-In . SVG Version: 6.00 Build 0)  -->
<svg version="1.1" id="Layer_1" xmlns="http://www.w3.org/2000/svg" xmlns:xlink="http://www.w3.org/1999/xlink" x="0px" y="0px"
	 viewBox="0 0 75 75" enable-background="new 0 0 75 75" xml:space="preserve">
<g>
	
		<radialGradient id="SVGID_1_" cx="-144.5344" cy="20.17" r="53.8071" gradientTransform="matrix(-0.7771 0 0 0.7771 -69.5486 8.4592)" gradientUnits="userSpaceOnUse">
		<stop  offset="0" style="stop-color:#FFF8C7"/>
		<stop  offset="0.1559" style="stop-color:#FFE436"/>
		<stop  offset="1" style="stop-color:#FE761C"/>
	</radialGradient>
	<path fill="url(#SVGID_1_)" d="M15.7,37.9c0,12.2,9.9,22,22,22c12.2,0,22-9.9,22-22c0-12.2-9.9-22-22-22
		C25.6,15.9,15.7,25.8,15.7,37.9z"/>
	<g>
		
			<radialGradient id="SVGID_00000003825425945725990480000015614428908959813812_" cx="1083.9851" cy="-1889.597" r="8.0769" gradientTransform="matrix(-0.6521 0.8964 -1.2577 -1.02 -1623.4001 -2870.5703)" gradientUnits="userSpaceOnUse">
			<stop  offset="0" style="stop-color:#FFFFFF"/>
			<stop  offset="1" style="stop-color:#FFFFFF;stop-opacity:0"/>
		</radialGradient>
		<path fill="url(#SVGID_00000003825425945725990480000015614428908959813812_)" d="M41.1,35.7c-5.6-4.6-7.8-11.5-4.9-15.5
			c2.9-4,9.8-3.5,15.4,1c5.6,4.6,7.8,11.5,4.9,15.5C53.6,40.7,46.7,40.2,41.1,35.7z"/>
		
			<radialGradient id="SVGID_00000085970078219909824030000012151362913973638313_" cx="-2998.814" cy="2902.855" r="7.7936" gradientTransform="matrix(-0.9105 -0.8553 0.1725 -0.5659 -3205.7412 -872.6107)" gradientUnits="userSpaceOnUse">
			<stop  offset="0" style="stop-color:#FFFFFF"/>
			<stop  offset="1" style="stop-color:#FFFFFF;stop-opacity:0"/>
		</radialGradient>
		<path opacity="0.4" fill="url(#SVGID_00000085970078219909824030000012151362913973638313_)" d="M18.3,42.8
			c0.7-2.4,4.5-1.4,8.4,2.3c3.9,3.7,6.5,8.6,5.8,11.1c-0.7,2.4-4.5,1.4-8.4-2.3C20.1,50.2,17.5,45.2,18.3,42.8z"/>
	</g>
	
		<radialGradient id="SVGID_00000142160618389745878270000010752876278727255726_" cx="38.3508" cy="-5.3622" r="9.3624" gradientTransform="matrix(0.7771 0 0 0.7771 8.4109 8.4592)" gradientUnits="userSpaceOnUse">
		<stop  offset="0" style="stop-color:#FFF8C7"/>
		<stop  offset="0.1559" style="stop-color:#FFE436"/>
		<stop  offset="1" style="stop-color:#FE761C"/>
	</radialGradient>
	<path fill="url(#SVGID_00000142160618389745878270000010752876278727255726_)" d="M40.4,9.4c0,1.5-1.2,2.7-2.7,2.7l0,0
		c-1.5,0-2.7-1.2-2.7-2.7V5.6c0-1.5,1.2-2.7,2.7-2.7l0,0c1.5,0,2.7,1.2,2.7,2.7V9.4z"/>
	
		<radialGradient id="SVGID_00000014592100967494104170000005467761160999346839_" cx="437.6764" cy="-242.0034" r="9.3627" gradientTransform="matrix(0.5495 -0.5495 0.5495 0.5495 -93.238 387.2572)" gradientUnits="userSpaceOnUse">
		<stop  offset="0" style="stop-color:#FFF8C7"/>
		<stop  offset="0.1559" style="stop-color:#FFE436"/>
		<stop  offset="1" style="stop-color:#FE761C"/>
	</radialGradient>
	<path fill="url(#SVGID_00000014592100967494104170000005467761160999346839_)" d="M19.4,15.9c1,1,1,2.7,0,3.8l0,0c-1,1-2.7,1-3.8,0
		L13,17c-1-1-1-2.7,0-3.8l0,0c1-1,2.7-1,3.8,0L19.4,15.9z"/>
	
		<radialGradient id="SVGID_00000074438768948485596030000015294803908285940392_" cx="887.2846" cy="-127.1563" r="9.3623" gradientTransform="matrix(0 -0.7771 0.7771 0 102.8825 726.9232)" gradientUnits="userSpaceOnUse">
		<stop  offset="0" style="stop-color:#FFF8C7"/>
		<stop  offset="0.1559" style="stop-color:#FFE436"/>
		<stop  offset="1" style="stop-color:#FE761C"/>
	</radialGradient>
	<path fill="url(#SVGID_00000074438768948485596030000015294803908285940392_)" d="M9.2,35.3c1.5,0,2.7,1.2,2.7,2.7l0,0
		c0,1.5-1.2,2.7-2.7,2.7H5.4c-1.5,0-2.7-1.2-2.7-2.7l0,0c0-1.5,1.2-2.7,2.7-2.7H9.2z"/>
	
		<radialGradient id="SVGID_00000065036527170819849590000014225162497520565660_" cx="1124.0897" cy="272.1667" r="9.3628" gradientTransform="matrix(-0.5495 -0.5495 0.5495 -0.5495 481.6799 828.5714)" gradientUnits="userSpaceOnUse">
		<stop  offset="0" style="stop-color:#FFF8C7"/>
		<stop  offset="0.1559" style="stop-color:#FFE436"/>
		<stop  offset="1" style="stop-color:#FE761C"/>
	</radialGradient>
	<path fill="url(#SVGID_00000065036527170819849590000014225162497520565660_)" d="M15.7,56.2c1-1,2.7-1,3.8,0l0,0c1,1,1,2.7,0,3.8
		l-2.7,2.7c-1,1-2.7,1-3.8,0l0,0c-1-1-1-2.7,0-3.8L15.7,56.2z"/>
	
		<radialGradient id="SVGID_00000183949557065575959340000017577717214514200225_" cx="1009.0762" cy="721.7781" r="9.3626" gradientTransform="matrix(-0.7771 0 0 -0.7771 821.3445 632.4521)" gradientUnits="userSpaceOnUse">
		<stop  offset="0" style="stop-color:#FFF8C7"/>
		<stop  offset="0.1559" style="stop-color:#FFE436"/>
		<stop  offset="1" style="stop-color:#FE761C"/>
	</radialGradient>
	<path fill="url(#SVGID_00000183949557065575959340000017577717214514200225_)" d="M35.1,66.5c0-1.5,1.2-2.7,2.7-2.7l0,0
		c1.5,0,2.7,1.2,2.7,2.7l0,3.8c0,1.5-1.2,2.7-2.7,2.7l0,0c-1.5,0-2.7-1.2-2.7-2.7L35.1,66.5z"/>
	
		<radialGradient id="SVGID_00000074432383252613383570000005763411034290310068_" cx="609.9172" cy="958.5839" r="9.3629" gradientTransform="matrix(-0.5495 0.5495 -0.5495 -0.5495 922.9956 253.6565)" gradientUnits="userSpaceOnUse">
		<stop  offset="0" style="stop-color:#FFF8C7"/>
		<stop  offset="0.1559" style="stop-color:#FFE436"/>
		<stop  offset="1" style="stop-color:#FE761C"/>
	</radialGradient>
	<path fill="url(#SVGID_00000074432383252613383570000005763411034290310068_)" d="M56,60c-1-1-1-2.7,0-3.8l0,0c1-1,2.7-1,3.8,0
		l2.7,2.7c1,1,1,2.7,0,3.8l0,0c-1,1-2.7,1-3.8,0L56,60z"/>
	
		<radialGradient id="SVGID_00000109729951663125018420000000039284783043597724_" cx="160.1413" cy="843.5745" r="9.3623" gradientTransform="matrix(0 0.7771 -0.7771 0 726.8779 -86.0104)" gradientUnits="userSpaceOnUse">
		<stop  offset="0" style="stop-color:#FFF8C7"/>
		<stop  offset="0.1559" style="stop-color:#FFE436"/>
		<stop  offset="1" style="stop-color:#FE761C"/>
	</radialGradient>
	<path fill="url(#SVGID_00000109729951663125018420000000039284783043597724_)" d="M66.3,40.6c-1.5,0-2.7-1.2-2.7-2.7l0,0
		c0-1.5,1.2-2.7,2.7-2.7h3.8c1.5,0,2.7,1.2,2.7,2.7l0,0c0,1.5-1.2,2.7-2.7,2.7H66.3z"/>
	
		<radialGradient id="SVGID_00000181085760717316351050000004453237509075645879_" cx="-76.4987" cy="444.4137" r="9.3627" gradientTransform="matrix(0.5495 0.5495 -0.5495 0.5495 348.0807 -187.6615)" gradientUnits="userSpaceOnUse">
		<stop  offset="0" style="stop-color:#FFF8C7"/>
		<stop  offset="0.1559" style="stop-color:#FFE436"/>
		<stop  offset="1" style="stop-color:#FE761C"/>
	</radialGradient>
	<path fill="url(#SVGID_00000181085760717316351050000004453237509075645879_)" d="M59.8,19.7c-1,1-2.7,1-3.8,0l0,0
		c-1-1-1-2.7,0-3.8l2.7-2.7c1-1,2.7-1,3.8,0l0,0c1,1,1,2.7,0,3.8L59.8,19.7z"/>
</g>
</svg>
