<?xml version="1.0" encoding="utf-8"?>
<!-- Generator: Adobe Illustrator 26.1.0, SVG Export Plug-In . SVG Version: 6.00 Build 0)  -->
<svg version="1.1" id="Layer_1" xmlns="http://www.w3.org/2000/svg" xmlns:xlink="http://www.w3.org/1999/xlink" x="0px" y="0px"
	 viewBox="0 0 75 75" style="enable-background:new 0 0 75 75;" xml:space="preserve">
<style type="text/css">
	.st0{fill-rule:evenodd;clip-rule:evenodd;fill:#E7F1FF;}
	.st1{fill-rule:evenodd;clip-rule:evenodd;fill:url(#SVGID_1_);}
	.st2{fill-rule:evenodd;clip-rule:evenodd;fill:url(#SVGID_00000165957394905213419560000017296951995954880394_);}
	.st3{fill:url(#SVGID_00000139979450133539687340000015076133750110648499_);}
	.st4{fill:url(#SVGID_00000168101334574327293650000009400915505949760387_);}
	.st5{fill:url(#SVGID_00000130627477272049057290000005711821006463403933_);}
	.st6{fill-rule:evenodd;clip-rule:evenodd;fill:#FFFFFF;}
	.st7{fill-rule:evenodd;clip-rule:evenodd;fill:url(#SVGID_00000134207280747661094300000006268784578387822493_);}
	.st8{fill:url(#SVGID_00000075159083656109574530000003286083301059699079_);}
	.st9{fill:url(#SVGID_00000117634826021289627670000007643789470514500229_);}
	.st10{fill:url(#SVGID_00000106833249675707558910000007756695147517221774_);}
	.st11{fill-rule:evenodd;clip-rule:evenodd;fill:url(#SVGID_00000017503311458086825430000018216831378418929538_);}
	.st12{fill-rule:evenodd;clip-rule:evenodd;fill:url(#SVGID_00000038393749372959129340000003811931486954374289_);}
</style>
<path class="st0" d="M17.4,47.8h20.1H39h18.6c0,0,0,0,0,0c0,0,0,0,0,0c8.7,0,15.8-7.1,15.8-15.8s-7.1-15.8-15.8-15.8
	c-0.3,0-0.7,0-1,0C53,9.4,45.8,4.7,37.6,4.7c-10.4,0-19.2,7.4-21.1,17.3C9.8,22.5,4.5,28.1,4.5,34.9C4.5,42,10.3,47.8,17.4,47.8z"/>
<linearGradient id="SVGID_1_" gradientUnits="userSpaceOnUse" x1="31.0329" y1="63.087" x2="43.9704" y2="30.0245" gradientTransform="matrix(1 0 0 -1 0 75.8898)">
	<stop  offset="0" style="stop-color:#C6D8F5"/>
	<stop  offset="1" style="stop-color:#89AFD1;stop-opacity:0"/>
</linearGradient>
<path class="st1" d="M17.4,47.8h20.1H39h18.6c0,0,0,0,0,0c0,0,0,0,0,0c8.7,0,15.8-7.1,15.8-15.8s-7.1-15.8-15.8-15.8
	c-0.3,0-0.7,0-1,0C53,9.4,45.8,4.7,37.6,4.7c-10.4,0-19.2,7.4-21.1,17.3C9.8,22.5,4.5,28.1,4.5,34.9C4.5,42,10.3,47.8,17.4,47.8z"/>
<linearGradient id="SVGID_00000061445832550872331000000003699637697289141402_" gradientUnits="userSpaceOnUse" x1="39.3214" y1="26.6357" x2="38.4149" y2="71.2869" gradientTransform="matrix(1 0 0 -1 0 75.8898)">
	<stop  offset="0" style="stop-color:#547DDA"/>
	<stop  offset="0.2574" style="stop-color:#93C2FF;stop-opacity:0"/>
</linearGradient>
<path style="fill-rule:evenodd;clip-rule:evenodd;fill:url(#SVGID_00000061445832550872331000000003699637697289141402_);" d="
	M17.4,47.8h20.1H39h18.6c0,0,0,0,0,0c0,0,0,0,0,0c8.7,0,15.8-7.1,15.8-15.8s-7.1-15.8-15.8-15.8c-0.3,0-0.7,0-1,0
	C53,9.4,45.8,4.7,37.6,4.7c-10.4,0-19.2,7.4-21.1,17.3C9.8,22.5,4.5,28.1,4.5,34.9C4.5,42,10.3,47.8,17.4,47.8z"/>
<radialGradient id="SVGID_00000077288061273561049790000009068685475476222902_" cx="-276.4333" cy="459.8109" r="1" gradientTransform="matrix(-16.7708 -21.5625 -24.9536 19.4083 6861.0854 -14836.9414)" gradientUnits="userSpaceOnUse">
	<stop  offset="0.6838" style="stop-color:#8FABDD;stop-opacity:0"/>
	<stop  offset="1" style="stop-color:#5582D3"/>
</radialGradient>
<path style="fill:url(#SVGID_00000077288061273561049790000009068685475476222902_);" d="M4.5,34.9c0-7.1,5.8-12.9,12.9-12.9h4.3
	c9.5,0,17.2,7.7,17.2,17.2v8.6H17.4C10.3,47.8,4.5,42,4.5,34.9z"/>
<radialGradient id="SVGID_00000157279239636413410590000002401966664554222255_" cx="-269.368" cy="452.1652" r="1" gradientTransform="matrix(2.376580e-15 -38.8125 -38.8125 -2.376580e-15 17587.2246 -10411.3457)" gradientUnits="userSpaceOnUse">
	<stop  offset="0.5988" style="stop-color:#C7DFFF;stop-opacity:0"/>
	<stop  offset="1" style="stop-color:#6B97E6"/>
</radialGradient>
<path style="fill:url(#SVGID_00000157279239636413410590000002401966664554222255_);" d="M16,26.2c0-11.9,9.7-21.6,21.6-21.6
	c11.9,0,21.6,9.7,21.6,21.6s-9.7,21.6-21.6,21.6C25.7,47.8,16,38.2,16,26.2z"/>
<radialGradient id="SVGID_00000179607347370262329860000005394425348816039557_" cx="-265.2191" cy="444.7609" r="1" gradientTransform="matrix(16.8667 -25.3 -25.3 -16.8667 15775.0576 835.1943)" gradientUnits="userSpaceOnUse">
	<stop  offset="0.4777" style="stop-color:#8FABDD;stop-opacity:0"/>
	<stop  offset="1" style="stop-color:#5582D3"/>
</radialGradient>
<circle style="fill:url(#SVGID_00000179607347370262329860000005394425348816039557_);" cx="57.7" cy="32" r="15.8"/>
<path class="st6" d="M31.5,60L31.5,60l16.3,0c0,0,0,0,0,0c7.6,0,13.7-6.2,13.7-13.8c0-7.6-6.2-13.8-13.8-13.8c-0.3,0-0.6,0-0.9,0
	c-3.1-6-9.4-10-16.6-10c-9.1,0-16.7,6.5-18.4,15C6.1,38,1.5,42.8,1.5,48.8C1.5,55,6.5,60,12.8,60H31.5z"/>
<linearGradient id="SVGID_00000110458249668371371910000000314233808502929541_" gradientUnits="userSpaceOnUse" x1="31.5032" y1="53.3898" x2="31.5032" y2="15.8858" gradientTransform="matrix(1 0 0 -1 0 75.8898)">
	<stop  offset="0" style="stop-color:#718EA8"/>
	<stop  offset="1" style="stop-color:#3F6587"/>
</linearGradient>
<path style="fill-rule:evenodd;clip-rule:evenodd;fill:url(#SVGID_00000110458249668371371910000000314233808502929541_);" d="
	M31.5,60L31.5,60l16.3,0c0,0,0,0,0,0c7.6,0,13.7-6.2,13.7-13.8c0-7.6-6.2-13.8-13.8-13.8c-0.3,0-0.6,0-0.9,0c-3.1-6-9.4-10-16.6-10
	c-9.1,0-16.7,6.5-18.4,15C6.1,38,1.5,42.8,1.5,48.8C1.5,55,6.5,60,12.8,60H31.5z"/>
<radialGradient id="SVGID_00000165195411276829341470000002715883445227580305_" cx="-278.6547" cy="457.0403" r="1" gradientTransform="matrix(-11.2511 -21.2523 -24.5946 13.0205 8123.2808 -11812.9482)" gradientUnits="userSpaceOnUse">
	<stop  offset="0.6294" style="stop-color:#B8CDDF;stop-opacity:0"/>
	<stop  offset="1" style="stop-color:#A3B9CC"/>
</radialGradient>
<path style="fill:url(#SVGID_00000165195411276829341470000002715883445227580305_);" d="M1.5,48.8c0-6.2,5-11.3,11.3-11.3h3.8
	c8.3,0,15,6.7,15,15V60H12.8C6.5,60,1.5,55,1.5,48.8z"/>
<radialGradient id="SVGID_00000036229350614427693210000002597768442100860317_" cx="-270.8469" cy="451.1573" r="1" gradientTransform="matrix(2.066812e-15 -33.7536 -33.7536 -2.066812e-15 15258.4375 -9085.8057)" gradientUnits="userSpaceOnUse">
	<stop  offset="0.6875" style="stop-color:#B8CDDF;stop-opacity:0"/>
	<stop  offset="1" style="stop-color:#C1D7EA"/>
</radialGradient>
<path style="fill:url(#SVGID_00000036229350614427693210000002597768442100860317_);" d="M11.5,41.3c0-10.4,8.4-18.8,18.8-18.8
	S49,30.9,49,41.3C49,51.6,40.6,60,30.3,60S11.5,51.6,11.5,41.3z"/>
<radialGradient id="SVGID_00000139283681289133111660000015840361523523028893_" cx="-266.0762" cy="442.6433" r="1" gradientTransform="matrix(14.6682 -22.0023 -22.0023 -14.6682 13682.4639 694.8369)" gradientUnits="userSpaceOnUse">
	<stop  offset="0.3826" style="stop-color:#B8CDDF;stop-opacity:0"/>
	<stop  offset="1" style="stop-color:#A3B9CC"/>
</radialGradient>
<circle style="fill:url(#SVGID_00000139283681289133111660000015840361523523028893_);" cx="47.8" cy="46.3" r="13.8"/>
<linearGradient id="SVGID_00000066477425473714971360000000452641833330962358_" gradientUnits="userSpaceOnUse" x1="38.6919" y1="10.9769" x2="25.3596" y2="27.6799" gradientTransform="matrix(1 0 0 -1 0 75.8898)">
	<stop  offset="0" style="stop-color:#E25A01"/>
	<stop  offset="1" style="stop-color:#FFD400"/>
</linearGradient>
<path style="fill-rule:evenodd;clip-rule:evenodd;fill:url(#SVGID_00000066477425473714971360000000452641833330962358_);" d="
	M20.6,55l12.3-18.4c0.6-0.9,2-0.4,1.9,0.7l-1.6,14.2h5.3c0.8,0,1.3,0.9,0.9,1.6L27.1,71.5c-0.6,0.9-2,0.4-1.9-0.7l1.6-14.2h-5.3
	C20.6,56.6,20.1,55.7,20.6,55z"/>
<linearGradient id="SVGID_00000022524030118184093790000003630639595706964390_" gradientUnits="userSpaceOnUse" x1="38.6919" y1="10.9769" x2="25.3596" y2="27.6799" gradientTransform="matrix(1 0 0 -1 0 75.8898)">
	<stop  offset="0" style="stop-color:#E25A01"/>
	<stop  offset="1" style="stop-color:#FAB01C"/>
</linearGradient>
<path style="fill-rule:evenodd;clip-rule:evenodd;fill:url(#SVGID_00000022524030118184093790000003630639595706964390_);" d="
	M20.6,55l12.3-18.4c0.6-0.9,2-0.4,1.9,0.7l-1.6,14.2h5.3c0.8,0,1.3,0.9,0.9,1.6L27.1,71.5c-0.6,0.9-2,0.4-1.9-0.7l1.6-14.2h-5.3
	C20.6,56.6,20.1,55.7,20.6,55z"/>
</svg>
